<svg width="155" height="146" viewBox="0 0 155 146" fill="none" xmlns="http://www.w3.org/2000/svg">
<path d="M145.645 3.59109C156.127 8.30334 154.161 21.703 154.695 38.9986C155.001 48.6602 155.058 52.8722 154.944 61.7439C154.847 68.4831 155.65 80.3294 152.938 85.9895C150.169 91.7547 142.647 93.15 137.892 94.4925C131.897 96.1774 125.825 97.3356 119.715 97.7833C116.106 98.0464 112.498 98.3096 108.908 98.7308C106.789 98.9942 103.314 98.7046 101.423 100.337C99.1321 102.338 97.5472 111.472 94.8741 116.501C92.4873 120.976 89.3751 125.188 85.7473 127.663C84.7353 128.347 83.6279 128.926 82.5013 128.689C78.9689 128.005 79.2363 119.738 79.2172 116.158C79.1981 113.157 79.3127 109.972 79.7519 106.944C80.1909 103.917 78.3771 101.179 76.1431 101.442L67.5318 102.469C51.0158 102.838 47.1588 101.995 32.2847 97.8886C26.2321 96.23 22.7569 90.1488 22.4324 81.4088C22.0123 69.9837 22.375 58.4005 22.3368 46.9753C22.3178 37.6298 21.2485 27.0733 24.8955 18.6491C28.7333 9.77755 37.0009 7.09237 44.4093 5.5655C63.0448 1.85363 81.814 0.195126 100.66 0.010848C100.66 0.010848 136.784 -0.384032 145.645 3.59109Z" fill="#F7BC28"/>
<path d="M51.703 44.1057C77.0022 45.0009 102.416 44.2638 127.658 41.7629C131.305 41.3942 131.343 33.4966 127.658 33.8653C102.416 36.3662 77.0022 37.1033 51.703 36.2083C48.0179 36.0765 48.0179 43.9741 51.703 44.1057Z" fill="white"/>
<path d="M47.3689 66.3245C63.7324 66.3245 80.0957 65.2714 96.4591 65.0083C109.118 64.8239 121.72 65.6664 134.341 64.1658C137.987 63.7446 138.026 55.847 134.341 56.2682C121.72 57.7425 109.118 56.9001 96.4591 57.1107C80.0957 57.3738 63.7324 58.4269 47.3689 58.4269C43.6838 58.4269 43.6647 66.3245 47.3689 66.3245Z" fill="white"/>
<path d="M21.4779 136.85C21.6689 135.27 20.9242 133.717 19.7786 133.401C12.752 131.48 6.18378 126.899 2.05953 118.396C-5.00518 103.812 7.654 88.9116 16.6662 84.0151C25.9268 78.9869 36.9629 79.5662 45.536 86.595C46.0898 87.0425 46.6053 87.5163 47.1208 88.0429C53.2881 94.2293 58.4434 106.418 56.8013 116.606C56.1903 120.37 54.682 123.845 51.9325 126.662C46.8153 131.927 39.8652 133.875 33.2396 134.375C31.9604 134.481 30.7575 135.218 29.9173 136.534C28.5234 138.693 26.194 142.089 24.0555 144.432C22.6426 145.985 20.5805 144.247 20.886 141.799L21.4779 136.85Z" fill="#39B55D"/>
<path d="M16.9141 104.628C25.2581 104.628 33.6021 104.628 41.9461 104.628C45.0202 104.628 45.0202 98.0464 41.9461 98.0464C33.6021 98.0464 25.2581 98.0464 16.9141 98.0464C13.84 98.0464 13.84 104.628 16.9141 104.628Z" fill="white"/>
<path d="M15.6921 118.633C24.3417 118.633 32.9911 118.633 41.6406 118.633C44.7147 118.633 44.7147 112.052 41.6406 112.052C32.9911 112.052 24.3417 112.052 15.6921 112.052C12.6181 112.052 12.6181 118.633 15.6921 118.633Z" fill="white"/>
</svg>
