<svg width="123" height="159" viewBox="0 0 123 159" fill="none" xmlns="http://www.w3.org/2000/svg">
<path d="M9.13735 29.9088C3.87496 33.1349 0.522133 39.0377 0.277886 45.5497C-0.55477 67.5716 -1.34302 114.112 27.3337 137.735L51.9137 155.336C57.5202 159.351 64.7699 159.554 70.5875 155.886C78.1923 151.094 88.373 143.877 94.257 136.385C94.5236 136.038 94.801 135.716 95.0897 135.393C98.82 131.319 126.908 98.7223 122.545 44.9763C122.046 38.8227 118.793 33.3021 113.819 30.2074L70.2988 3.16719C64.8809 -0.202385 58.2085 -0.226285 52.7797 3.11939L9.13735 29.9088Z" fill="#F7BC28"/>
<path d="M22.6593 42.2268C18.7625 44.6165 16.2756 49.0017 16.0869 53.8291C15.4651 70.1631 14.8878 104.672 36.1483 122.201L54.378 135.261C58.5412 138.236 63.9146 138.391 68.2222 135.667C73.8621 132.118 81.4115 126.765 85.7746 121.209C85.9745 120.958 86.1743 120.707 86.3963 120.48C89.1607 117.457 109.911 93.0453 106.758 53.4229C106.558 50.8538 100.629 43.1708 98.6086 41.4261L68.0224 22.3917C64.0035 19.8943 59.0631 19.8824 55.033 22.3558L22.6593 42.2268Z" fill="#E48929"/>
<path d="M61.4947 20.5037V79.5669H105.47C105.47 79.5669 108.601 63.0894 106.769 53.4227C106.769 53.4227 106.258 46.7792 98.62 41.4261L68.0227 22.3917C68.0227 22.3917 64.9141 20.3842 61.4947 20.5037Z" fill="#FBFAF7"/>
<path d="M61.4945 79.5668L61.4835 137.591C61.4835 137.591 57.9531 137.806 53.5232 134.627L38.8685 124.136C38.8685 124.136 26.4453 116.166 22.4042 102.975C22.4042 102.975 17.3083 90.8467 16.6089 78.4795L61.4945 79.5668Z" fill="#FBFAF7"/>
</svg>
