<svg width="103" height="145" viewBox="0 0 103 145" fill="none" xmlns="http://www.w3.org/2000/svg">
<path d="M88.5901 145H14.4099C6.44961 145 0 137.464 0 128.162V25.6416C0 16.3401 6.44961 8.80383 14.4099 8.80383H88.5901C96.5503 8.80383 103 16.3401 103 25.6416V128.162C103 137.464 96.5503 145 88.5901 145Z" fill="#F7BC28"/>
<path d="M86.6532 53.2295H16.3467C12.996 53.2295 10.2651 50.0384 10.2651 46.1232V26.3432C10.2651 22.428 12.996 19.2369 16.3467 19.2369H86.6532C90.0039 19.2369 92.7348 22.428 92.7348 26.3432V46.1232C92.7348 50.0384 90.0039 53.2295 86.6532 53.2295Z" fill="#E48929"/>
<path d="M86.6533 92.4497H16.3469C13.5191 92.4497 11.2336 89.7792 11.2336 86.475V66.6952C11.2336 63.391 13.5191 60.7205 16.3469 60.7205H86.6533C89.4811 60.7205 91.7666 63.391 91.7666 66.6952V86.475C91.7666 89.7792 89.4811 92.4497 86.6533 92.4497Z" fill="#E48929"/>
<path d="M86.6532 133.933H16.3467C12.996 133.933 10.2651 130.742 10.2651 126.827V107.047C10.2651 103.132 12.996 99.9409 16.3467 99.9409H86.6532C90.0039 99.9409 92.7348 103.132 92.7348 107.047V126.827C92.7348 130.742 90.0039 133.933 86.6532 133.933Z" fill="#E48929"/>
<path d="M52.0425 82.6051C54.8879 82.6051 57.1945 79.9099 57.1945 76.5852C57.1945 73.2604 54.8879 70.5652 52.0425 70.5652C49.1972 70.5652 46.8906 73.2604 46.8906 76.5852C46.8906 79.9099 49.1972 82.6051 52.0425 82.6051Z" fill="#F7BC28"/>
<path d="M52.0425 122.957C54.8879 122.957 57.1945 120.262 57.1945 116.937C57.1945 113.612 54.8879 110.917 52.0425 110.917C49.1972 110.917 46.8906 113.612 46.8906 116.937C46.8906 120.262 49.1972 122.957 52.0425 122.957Z" fill="#F7BC28"/>
<path d="M16.0173 10.6368C18.5739 27.1578 20.2008 44.3125 22.9123 60.7204H74.025C69.8415 31.9783 67.6722 21.6131 65.2705 3.16841C64.9994 1.17683 63.4305 -0.226322 61.7262 0.0226253L18.7482 6.26892C16.9276 6.54049 15.688 8.53206 16.0173 10.6368Z" fill="#FBFAF7"/>
<path d="M28.936 24.691C38.6006 25.0758 48.2461 24.5779 57.8527 23.1973C59.3828 22.9709 59.4021 20.142 57.8527 20.3684C48.2655 21.7489 38.6006 22.2468 28.936 21.862C27.3866 21.8167 27.3866 24.6457 28.936 24.691Z" fill="#194429"/>
<path d="M30.873 36.0068C40.5379 36.3914 50.1832 35.8935 59.7898 34.5131C61.3198 34.2867 61.3392 31.4578 59.7898 31.6841C50.2025 33.0645 40.5379 33.5624 30.873 33.1778C29.3237 33.1325 29.3237 35.9615 30.873 36.0068Z" fill="#194429"/>
<path d="M32.8092 47.3226C42.4741 47.7073 52.1194 47.2095 61.726 45.8289C63.256 45.6027 63.2756 42.7737 61.726 42.9999C52.1388 44.3805 42.4741 44.8784 32.8092 44.4936C31.2599 44.4485 31.2599 47.2774 32.8092 47.3226Z" fill="#194429"/>
</svg>
