<svg width="147" height="150" viewBox="0 0 147 150" fill="none" xmlns="http://www.w3.org/2000/svg">
<path d="M40.3805 21.4941C26.0634 48.1235 13.9274 76.2706 4.20614 105.459C1.96277 112.182 -0.187127 119.171 0.0153993 126.353C0.217925 133.535 3.25582 141.071 8.9733 144.176C12.2137 145.941 15.9215 146.135 19.5047 146.241C52.8281 147.159 86.2605 142.341 118.306 131.982C131.252 127.8 146.286 119.453 146.972 104.224C147.439 93.7588 140.647 84.9882 136.456 75.6353C129.632 60.4059 129.352 41.7706 120.534 27.9176C112.558 15.3706 102.213 2.2765 88.6285 0.93533C80.6053 0.141212 71.8188 -0.917612 62.9544 1.42945C53.2175 3.98827 45.0386 11.4706 40.3805 21.4941Z" fill="#F7BC28"/>
<path d="M50.6319 24.3706C44.7587 43.5 42.3439 64.2883 43.6214 84.7236C44.2446 94.5706 45.818 104.7 50.4761 112.694C56.4429 122.947 67.1456 128.259 77.2252 126.847C87.3048 125.435 96.5275 117.724 102.105 107.118C110.253 91.6412 110.611 71.8236 109.52 53.3294C108.539 36.8824 105.298 18.053 93.5831 10.5001C84.3759 4.57067 73.2526 7.92362 63.2665 11.4001L50.6319 24.3706Z" fill="#FFC9A0"/>
<path d="M36.4707 64.6059C50.336 64.6765 66.1953 57.4941 69.685 53.7353C80.2008 42.353 81.2602 18.7941 80.9486 3.14124L47.9991 16.5177L36.7044 40.553L36.4707 64.6059Z" fill="#F7BC28"/>
<path d="M73.4857 3.12354C73.4857 3.12354 87.5224 48.3882 117.013 54.8823L112.371 35.4L100.687 10.0235L73.4857 3.12354Z" fill="#F7BC28"/>
<path d="M90.5447 52.1118C89.7658 51.9706 89.0024 52.4294 88.6597 53.2412C88.5818 53.4353 88.4883 53.6294 88.426 53.8412C88.2079 54.5118 88.2235 55.4118 88.7843 55.7471C89.0024 55.8882 89.2673 55.8882 89.5165 55.8882C92.1338 55.9412 94.7355 56.3471 97.2904 57.0353C98.5835 57.3882 99.8609 57.8118 101.123 58.3235C101.434 58.4471 102.603 59.1882 102.883 59.0647C103.413 58.8529 103.148 57.7765 102.93 57.3882C102.634 56.8765 102.151 56.5412 101.699 56.2235L101.575 56.1353C99.0041 54.3529 96.1376 53.1353 93.162 52.6059L90.5447 52.1118Z" fill="#F7BC28"/>
<path d="M66.3043 8.75305C56.0689 8.7707 45.5532 27.3707 41.9388 36.706C37.9039 47.1354 30.7687 58.306 25.8614 68.2237C21.0631 77.9296 16.2959 87.7237 12.6504 98.0825C10.8432 103.2 9.33207 108.459 8.2727 113.841C7.32239 118.606 7.50933 119.753 6.94849 124.677C6.30976 130.271 6.51228 136.818 11.4664 137.859C16.327 138.882 25.2694 138.635 30.13 139.359C31.0336 139.5 31.4386 137.912 30.5195 137.771C23.4778 136.694 11.8247 140.118 9.03607 129.882C7.7586 125.188 8.59986 120.018 9.48786 115.341C10.4382 110.294 19.9725 91.059 21.5772 86.2413C28.167 66.5296 33.09 63.2825 41.0353 44.2943C45.4753 33.6884 50.2736 21.4943 58.6706 14.1178C59.9793 12.9531 61.4281 11.9825 63.0172 11.4354C64.3725 10.9766 66.5068 10.3766 67.6753 10.0236C69.1553 9.54717 68.8125 8.75305 66.3043 8.75305Z" fill="white"/>
<path d="M51.4885 135.547C51.2548 135.547 51.0367 135.53 50.803 135.512C46.2851 135.018 39.072 133.659 35.0059 131.771C31.3449 130.077 27.3255 127.659 25.2535 123.688C21.6859 116.894 22.2779 106.218 27.0607 100.324C27.6838 99.5472 27.9175 97.6589 27.2788 98.4354C23.1504 103.535 20.9537 109.129 21.6859 115.835C22.1845 120.335 22.0131 124.747 24.1474 127.059C26.7647 129.9 32.1082 132.282 35.4577 133.747C39.5238 135.512 44.9765 136.147 49.2918 136.588C50.211 136.694 54.6198 136.588 54.0434 135.565H51.4885V135.547Z" fill="white"/>
<path d="M36.2372 88.8706C34.1029 95.453 31.7037 106.288 33.0591 111.671C33.8536 114.794 39.1037 119.524 43.2944 123.477C44.0111 124.147 45.569 124.641 44.8523 123.953C40.8641 120.194 36.4397 116.012 35.0532 110.082C33.4797 103.394 35.1622 94.6059 37.2186 88.3059C37.5302 87.3177 36.5643 87.8824 36.2372 88.8706Z" fill="white"/>
<path d="M40.4903 57.7413C45.6781 56.8766 50.5699 54.7413 55.3371 52.3413C59.7459 50.1355 66.8188 46.4119 70.3552 42.6002C73.8605 38.7884 74.6238 32.259 76.1973 27.1237C77.911 21.5825 77.6306 18.4943 77.6617 12.6354C77.6617 11.5766 76.6335 8.73541 76.6335 9.79423C76.6335 26.2943 73.4866 35.7531 66.3514 43.1472C62.9708 46.6413 58.7333 48.8649 54.5893 50.9296C49.9312 53.259 45.1485 55.3237 40.0853 56.1531C39.1817 56.3119 39.5712 57.9002 40.4903 57.7413Z" fill="white"/>
<path d="M50.1647 39.9882C51.3954 34.7999 57.0817 29.5764 60.3533 25.6235C63.9209 21.3352 64.6998 19.8882 69.0308 16.6765C69.8097 16.0941 70.5575 13.4823 69.7786 14.0647C65.1361 17.5059 59.1537 22.6764 55.4304 27.3352C52.1121 31.4823 50.0089 35.8764 49.7129 38.5764C49.6038 39.6176 49.1209 42.3705 49.6973 42.6176L50.1647 39.9882Z" fill="white"/>
<path d="M62.0358 34.9413C66.5849 28.4119 71.7415 20.3295 70.9626 15.0001C70.8068 13.9766 69.7007 13.5178 69.5605 14.5589C68.5478 22.7648 63.7963 30.9531 59.403 37.2884C58.8266 38.1001 60.0262 37.8354 60.6026 37.006L62.0358 34.9413Z" fill="white"/>
<path d="M120.301 55.0942C103.943 50.153 90.8408 34.4119 87.429 15.6353C87.1954 15.9883 86.9617 16.3236 86.728 16.6765C97.1191 15.6 106.248 23.0295 112.2 32.1001C119.039 42.5295 121.843 55.4648 125.566 67.5354C127.498 73.7824 129.882 79.6766 132.483 85.606C135.038 91.4295 137.671 97.8001 136.986 104.471C135.848 115.624 125.971 121.977 117.543 125.382C104.581 130.624 90.5137 132.953 76.7886 133.094C75.8539 133.112 73.704 135.565 74.6231 135.565C87.7562 135.424 99.16 133.677 111.685 129.177C120.285 126.088 134.96 118.394 138.357 108.194C140.366 102.177 140.584 96.8824 138.481 91.1119C136.113 84.5824 130.692 78.3883 128.448 71.7883C124.117 59.0119 119.085 40.0236 116.546 35.4177C108.928 21.5119 98.5057 13.8177 86.7436 15.0353C86.2606 15.0883 85.949 15.5118 86.0425 16.0765C90.981 42.9707 103.101 51.6001 119.927 56.6648C120.83 56.9472 121.204 55.3766 120.301 55.0942Z" fill="white"/>
<path d="M74.3895 127.747C84.6093 128.718 101.092 127.641 110.86 123.547C118.774 120.23 120.534 115.324 124.024 106.359C125.971 101.347 127.327 101.824 123.931 90.5471C123.635 89.5413 122.123 89.206 122.606 90.106C127.264 98.9295 121.22 110.912 115.175 116.559C108.367 122.93 99.5963 125.753 90.9188 126.477C85.4194 126.935 79.8889 126.635 74.4051 126.106C73.4548 126.018 73.4548 127.659 74.3895 127.747Z" fill="white"/>
<path d="M129.742 109.659C133.932 103.465 132.39 99.2472 130.879 91.8354C129.103 83.153 124.538 75.6001 120.347 68.2236C119.849 67.3413 118.587 68.1531 119.101 69.0531C123.089 76.0589 127.374 83.1354 129.274 91.2883C130.972 98.5766 131.409 104.541 127.747 112.041C127.296 112.959 127.046 114.547 127.607 113.718L129.742 109.659Z" fill="white"/>
<path d="M100.485 114.794C106.935 112.677 112.714 103.43 115.332 96.5473C118.525 88.0944 114.817 83.1002 113.026 74.3297C112.808 73.3061 111.421 73.7297 111.624 74.7708C113.322 83.0473 113.805 92.0297 110.923 100.041C108.539 106.659 103.414 111.106 97.665 114.336C97.1198 114.636 96.0137 115.959 96.0137 115.959L100.485 114.794Z" fill="white"/>
<path d="M97.7426 29.3648C100.298 30.6531 103.195 33.0354 105.392 35.6119C107.666 38.2942 112.854 45.3354 114.786 48.3354C118.525 54.1942 118.478 56.4178 120.737 63.1766C121.064 64.1472 122.466 63.7236 122.139 62.7354C119.724 55.4825 116.468 48.6354 112.387 42.4236C110.408 39.406 110.533 38.0825 108.196 35.4001C105.953 32.8236 102.993 30.106 99.8613 29.0648C98.9577 28.7648 96.839 29.0648 97.7426 29.3648Z" fill="white"/>
<path d="M46.1919 63.6355C40.0071 64.7826 37.7793 64.6943 32.1085 67.9414C28.0424 70.2708 23.7582 73.659 23.1039 78.7767C22.2626 85.359 28.0736 90.8296 33.8378 92.1002C39.602 93.3708 45.5532 91.9414 51.4109 92.4708" fill="#FFC9A0"/>
<path d="M107.884 53.1352C113.119 52.5352 118.447 53.3293 123.37 55.4293C128.293 57.5293 132.468 63.1764 131.58 69.0352C130.614 75.3529 124.694 78.8646 119.366 80.9999C114.365 82.9941 109.24 84.5999 104.052 85.7999" fill="#FFC9A0"/>
<path d="M63.6714 124.218L67.9244 149.365H80.9484L85.6533 116.806L63.6714 124.218Z" fill="#FFC9A0"/>
<path d="M50.9274 102.247C50.7404 102.441 50.46 102.441 50.2731 102.247C48.7931 100.765 47.0638 99.6176 45.5215 98.2059C43.8701 96.6882 42.3746 94.7471 42.0007 92.3823C41.2996 87.9353 45.319 84.9176 48.575 87.7765C49.4941 88.5706 50.2108 89.6294 50.8807 90.7059C50.943 90.8118 51.1143 90.7588 51.0988 90.6176C50.9741 89.3823 51.3792 88.0765 52.0958 87.1235C53.3266 85.4471 55.9438 84.0176 57.9223 84.4412C60.711 85.0235 60.6487 88.6765 59.8853 91.0765C58.9661 93.9706 56.3333 96.5294 54.4015 98.5588L50.9274 102.247Z" fill="#F1673C"/>
<path d="M102.104 99.547C101.902 99.7235 101.621 99.6705 101.465 99.4588C100.141 97.7999 98.5521 96.4411 97.1656 94.8352C95.67 93.1235 94.3925 90.9882 94.2523 88.5882C94.003 84.0705 98.3028 81.6176 101.263 84.8646C102.089 85.7823 102.696 86.9117 103.257 88.0764C103.319 88.1999 103.475 88.147 103.475 88.0235C103.475 86.7705 104.02 85.5352 104.83 84.6705C106.233 83.1705 108.959 82.0941 110.891 82.7646C113.601 83.7176 113.165 87.3176 112.168 89.6117C110.953 92.3646 108.086 94.5529 105.968 96.3352L102.104 99.547Z" fill="#F1673C"/>
<path d="M83.8771 108.124C88.8467 105.759 92.7415 101.206 94.6265 95.4884C94.8135 94.906 94.4084 94.2354 93.9255 94.0766C93.3646 93.9001 92.8661 94.2884 92.6792 94.8707C91.0745 99.7589 87.6004 103.888 83.3474 105.9C82.8488 106.147 82.475 106.659 82.6463 107.312C82.7554 107.859 83.363 108.371 83.8771 108.124Z" fill="#010101"/>
<path d="M84.6877 66.9884C85.5601 71.1884 89.081 74.7531 93.0536 73.7296C96.7302 72.7766 98.3349 68.3472 99.3942 64.7119C98.8957 64.9413 98.3972 65.1707 97.9142 65.4002C100.313 66.7943 102.713 68.1707 105.112 69.5649C106.265 70.2355 107.293 68.259 106.14 67.5884C103.741 66.1943 101.342 64.8178 98.9424 63.4237C98.3349 63.0707 97.665 63.3707 97.4624 64.1119C96.6835 66.7766 95.6241 70.3237 93.038 71.3649C89.9845 72.6002 87.3205 69.5296 86.6662 66.3884C86.3391 64.9413 84.3761 65.559 84.6877 66.9884Z" fill="#010101"/>
<path d="M96.4183 69.7059C96.5118 69.7765 96.5897 69.8471 96.6676 69.9177C96.8078 70.0412 96.6987 69.953 96.6209 69.8824C96.6832 69.9353 96.7299 69.9883 96.7922 70.0412C96.9947 70.2354 97.2129 70.4118 97.4154 70.6059C97.8983 71.0471 98.3657 71.5059 98.8486 71.9471C99.7522 72.7942 100.64 73.6589 101.591 74.4354C102.027 74.7883 102.743 74.5412 102.977 74.0295C103.257 73.4295 103.071 72.8295 102.619 72.4589C102.525 72.3883 102.447 72.3177 102.369 72.2471C102.229 72.1236 102.338 72.2118 102.416 72.2824C102.354 72.2295 102.307 72.1765 102.245 72.1236C102.042 71.9295 101.824 71.753 101.622 71.5589C101.139 71.1177 100.671 70.6589 100.188 70.2177C99.2848 69.3706 98.3968 68.5059 97.4465 67.7295C97.0103 67.3765 96.2937 67.6236 96.06 68.1354C95.7796 68.7177 95.9665 69.3177 96.4183 69.7059Z" fill="#010101"/>
<path d="M66.9428 69.9354C66.2885 73.0766 63.6245 76.1472 60.571 74.9119C57.9849 73.8707 56.9255 70.3237 56.1466 67.659C55.9285 66.9354 55.2586 66.6178 54.6666 66.9707C52.2674 68.3649 49.8682 69.7413 47.4691 71.1354C46.3007 71.806 47.3289 73.7825 48.4973 73.1119C50.8964 71.7178 53.2956 70.3413 55.6948 68.9472C55.1962 68.7178 54.6977 68.4884 54.2148 68.259C55.2741 71.8943 56.8788 76.306 60.5554 77.2766C64.528 78.3178 68.0489 74.7354 68.9213 70.5354C69.2017 69.1237 67.2388 68.506 66.9428 69.9354Z" fill="#010101"/>
<path d="M56.1312 71.2766C55.1809 72.0531 54.2928 72.9178 53.3893 73.7649C52.9063 74.2061 52.439 74.6649 51.956 75.1061C51.7535 75.3002 51.551 75.4766 51.3329 75.6708C51.2861 75.7237 51.2394 75.759 51.1771 75.8119C51.1147 75.8649 51.3952 75.6355 51.1926 75.7943C51.1147 75.8649 51.0213 75.9355 50.9434 76.0061C50.5227 76.359 50.2579 77.0119 50.5851 77.5766C50.8655 78.0531 51.5198 78.3708 51.9716 77.9825C52.9219 77.2061 53.8099 76.3414 54.7135 75.4943C55.1964 75.0531 55.6638 74.5943 56.1467 74.1531C56.3493 73.959 56.5518 73.7825 56.7699 73.5884C56.8166 73.5355 56.8634 73.5002 56.9257 73.4472C56.988 73.3943 56.7076 73.6237 56.9101 73.4649C56.988 73.3943 57.0815 73.3237 57.1594 73.2531C57.58 72.9002 57.8449 72.2472 57.5177 71.6825C57.2529 71.2061 56.5985 70.9061 56.1312 71.2766Z" fill="#010101"/>
<path d="M114.63 61.3764C116.469 61.0588 118.431 61.447 120.223 61.9588C121.999 62.4706 123.822 63.1235 124.866 64.9764C125.411 65.947 125.613 67.0235 125.255 68.1353C124.928 69.1588 124.32 70.1294 123.666 70.9235C122.513 72.3 121.018 73.2 119.506 73.9235C117.699 74.7882 115.814 75.4411 114.023 76.3411C113.166 76.7647 113.914 78.1764 114.755 77.7531C118.307 75.9706 122.513 75.1235 125.115 71.5588C126.564 69.5823 127.467 67.1647 126.408 64.6941C125.426 62.4353 123.526 61.3235 121.485 60.6353C119.179 59.8588 116.671 59.3823 114.272 59.7882C113.322 59.947 113.711 61.5353 114.63 61.3764Z" fill="#010101"/>
<path d="M115.908 70.8C116.468 70.6765 117.029 70.3765 117.528 70.0942C118.229 69.7236 118.899 69.2647 119.506 68.7177C120.052 68.2236 120.566 67.553 120.612 66.7412C120.659 65.6647 119.787 65.0295 119.008 64.6589C117.902 64.1471 116.671 64.0589 115.487 63.9353C115.113 63.9 114.755 64.3412 114.77 64.7471C114.786 65.2236 115.082 65.5236 115.487 65.5589C115.69 65.5765 115.892 65.5942 116.095 65.6118C116.219 65.6295 116.328 65.6295 116.453 65.6471C116.5 65.6471 116.546 65.6647 116.578 65.6647C116.609 65.6647 116.827 65.7 116.749 65.6824C116.64 65.6648 116.858 65.7 116.858 65.7C116.92 65.7177 116.998 65.7177 117.06 65.7353C117.17 65.753 117.294 65.7706 117.403 65.8059C117.652 65.8589 117.886 65.9295 118.135 66C118.245 66.0353 118.338 66.0706 118.447 66.1236C118.494 66.1412 118.525 66.1589 118.572 66.1765C118.416 66.1059 118.603 66.1942 118.634 66.2118C118.727 66.2647 118.821 66.3177 118.899 66.3706C118.946 66.4059 118.977 66.4236 119.023 66.4589C119.195 66.5824 118.961 66.3883 119.039 66.4765C119.086 66.5295 119.132 66.5824 119.164 66.6177C119.257 66.7059 119.07 66.4412 119.133 66.5648C119.148 66.5824 119.148 66.6 119.164 66.6177C119.257 66.7765 119.117 66.4236 119.164 66.6C119.226 66.8295 119.148 66.4236 119.164 66.6C119.164 66.6177 119.148 66.6883 119.164 66.6883C119.148 66.6706 119.21 66.4765 119.179 66.5648C119.164 66.6177 119.148 66.6706 119.133 66.7236C119.101 66.8648 119.226 66.5295 119.164 66.653C119.148 66.6706 119.133 66.7059 119.133 66.7412C119.101 66.8118 119.07 66.8647 119.039 66.9177C118.961 67.0412 119.164 66.7589 119.07 66.8824C119.055 66.9 119.023 66.9353 119.008 66.9706C118.961 67.0236 118.914 67.0765 118.868 67.1295C118.759 67.253 118.634 67.3765 118.509 67.5C118.478 67.5353 118.416 67.6059 118.556 67.4647C118.525 67.5 118.478 67.5353 118.447 67.553C118.385 67.6059 118.322 67.6589 118.26 67.7118C118.12 67.8177 117.964 67.9236 117.824 68.0295C117.543 68.2236 117.247 68.4 116.951 68.5589C116.796 68.6471 116.64 68.7353 116.469 68.8059C116.453 68.8236 116.422 68.8412 116.391 68.8412C116.609 68.7706 116.437 68.8236 116.375 68.8412C116.313 68.8765 116.235 68.9118 116.172 68.9295C115.97 69.0177 115.752 69.1059 115.549 69.1589C115.175 69.2471 114.926 69.7765 115.051 70.1647C115.144 70.6942 115.518 70.8883 115.908 70.8Z" fill="#010101"/>
<path d="M40.3029 86.0472C37.7791 86.4001 35.2398 86.1707 32.7939 85.3236C31.049 84.7236 27.6528 83.5236 28.1202 80.806C28.3383 79.5354 29.1484 78.4589 29.9274 77.5766C30.7219 76.6766 31.5787 75.8472 32.5135 75.1413C34.4297 73.6589 36.564 72.6354 38.8229 72.0707C39.7265 71.8413 39.3526 70.2707 38.4335 70.4825C34.492 71.4707 30.5194 73.9236 27.9956 77.5413C26.7804 79.2884 26.0015 81.6883 27.2945 83.6648C28.4785 85.4825 30.7842 86.3648 32.6225 86.9825C35.0996 87.8119 37.7168 88.0413 40.2718 87.6884C41.2221 87.5648 41.2377 85.9236 40.3029 86.0472Z" fill="#010101"/>
<path d="M37.3121 75.5117C36.3306 75.6352 35.3958 75.9352 34.5078 76.4117C33.6977 76.8529 32.8565 77.4705 32.2956 78.2823C31.6569 79.1823 31.5478 80.294 31.9996 81.3352C32.3891 82.2529 33.1525 82.9234 34.0093 83.2234C35.131 83.6293 36.3306 83.4176 37.4678 83.2234C37.8573 83.1529 38.0754 82.6058 37.9664 82.2176C37.8573 81.7411 37.4678 81.5823 37.0784 81.6529C36.1436 81.8117 35.1154 81.9882 34.2118 81.5823C34.2897 81.6176 34.0561 81.494 34.0405 81.4764C33.947 81.4234 33.8691 81.3529 33.7756 81.2823C33.8224 81.3176 33.8068 81.2999 33.7445 81.247C33.7133 81.2117 33.6666 81.1587 33.6354 81.1234C33.6198 81.1058 33.4485 80.894 33.4952 80.9646C33.4329 80.8764 33.3862 80.7705 33.3238 80.6823C33.2927 80.6293 33.2771 80.5764 33.2615 80.5234C33.2771 80.594 33.2771 80.5764 33.246 80.4882C33.2148 80.3823 33.1836 80.2764 33.1681 80.1705C33.1836 80.3117 33.1681 80.0117 33.1681 79.9764C33.1681 79.8705 33.1681 79.8705 33.1681 79.9411C33.1836 79.8882 33.1836 79.8352 33.1992 79.7823C33.2148 79.694 33.2304 79.6587 33.2927 79.5529C33.3862 79.3587 33.5108 79.2176 33.6666 79.0411C33.9937 78.6882 34.3676 78.4058 34.7571 78.1587C35.5361 77.647 36.4552 77.294 37.3276 77.1882C37.7171 77.1352 38.0443 76.8529 38.0443 76.3764C38.0287 75.9352 37.7015 75.4764 37.3121 75.5117Z" fill="#010101"/>
<path d="M77.2555 78.3001C78.5174 81.9707 79.9507 85.6412 80.9789 89.3118C81.2281 90.2118 80.6206 91.1118 79.7949 91.1295C78.3305 91.1471 76.6012 91.1648 75.1679 91.1648C74.4357 91.1648 73.8593 90.4589 73.9216 89.6118L74.8563 78.653C74.981 77.1707 76.7726 76.906 77.2555 78.3001Z" fill="#E48929"/>
<path d="M84.5156 124.659C84.5156 124.659 74.3114 129.3 63.6554 124.218L64.4655 128.982L82.7863 136.588L84.5156 124.659Z" fill="#EFB086"/>
<path d="M77.5983 12.0706C82.7705 11.9117 87.4286 9.77645 92.554 10.7647C96.106 11.4529 100.281 13.5353 103.179 15.7941C109.177 20.4706 113.726 25.3941 118.415 31.7647C119.054 32.647 125.098 42.9176 120.051 31.6941C116.608 24.0706 108.538 18.5647 102.322 13.747C99.362 11.4529 96.5423 9.74116 92.9591 9.05292C87.6934 8.02939 76.5077 7.19998 76.5545 8.32939C76.6324 9.77645 76.6324 11.0823 76.6324 11.0823L77.5983 12.0706Z" fill="white"/>
</svg>
