<svg width="496" height="431" viewBox="0 0 496 431" fill="none" xmlns="http://www.w3.org/2000/svg">
<g clip-path="url(#clip0_1_1118)" filter="url(#filter0_d_1_1118)">
<path d="M372.527 63.6429C479.288 158.545 495.769 239.143 490.704 267.589C467.873 394.714 367.865 417.938 337.878 419.625C298.325 421.795 234.816 418.902 193.012 420.027C78.6137 426.536 32.2275 362.33 23.3843 329.464C-31.2823 194.946 45.3314 91.3661 90.5118 56.4108C206.598 -44.2767 326.945 19.2858 372.527 63.6429Z" fill="#F7BC28"/>
<path d="M191.645 157.902C187.786 173.491 181.194 189.402 167.929 198.482C155.629 206.92 138.908 207.884 125.161 202.018C111.414 196.152 100.802 184.098 95.4157 170.196C91.396 159.75 90.5921 146.732 98.2294 138.455C102.249 134.116 107.876 131.786 113.424 129.616L149.439 115.232C150.24 114.74 151.196 114.566 152.119 114.744C153.042 114.923 153.864 115.441 154.424 116.196L191.967 151.714" fill="#32142A"/>
<path d="M152.655 122.464C148.625 126.465 143.768 129.537 138.425 131.464C133.071 133.316 127.509 134.504 121.865 135C119.614 135.241 117.363 135.482 115.433 136.527C113.793 137.537 112.438 138.947 111.494 140.625C109.657 143.889 108.689 147.568 108.68 151.313C108.283 160.064 111.083 168.661 116.559 175.5C123.553 184.259 134.084 190.527 145.339 191.491C156.835 192.455 169.055 186.75 174.361 176.304C175.406 174.214 176.049 167.223 172.753 174.938C169.055 183.536 157.8 187.795 148.555 187.955C138.024 188.116 127.894 182.652 120.98 175.018C117.524 171.241 112.78 166.741 111.494 161.839C110.931 159.358 110.608 156.829 110.529 154.286C110.313 151.979 110.422 149.652 110.851 147.375C111.655 144 115.916 140.143 119.051 139.098C121.061 138.455 123.231 138.536 125.322 138.455C132.557 138.134 139.471 135.08 145.339 130.902C146.786 129.857 148.233 128.732 149.68 127.607C150.321 127.128 150.889 126.56 151.369 125.92C151.591 125.577 151.722 125.183 151.75 124.775C151.778 124.368 151.702 123.96 151.529 123.589C151.333 123.275 151.022 123.048 150.662 122.958C150.302 122.869 149.921 122.922 149.6 123.107C149.52 123.107 149.52 123.188 149.439 123.188L152.655 122.464Z" fill="#7F4341"/>
<path d="M124.598 157.58C124.196 154.366 123.553 150.268 125.884 147.616C128.216 144.964 132.316 144.804 135.612 144.884C139.712 145.045 146.625 143.277 150.565 141.268C153.941 139.58 154.584 141.429 157.398 139.098C159.167 137.571 156.594 135.08 154.825 136.527C151.851 139.098 148.314 141.509 144.375 142.071C140.114 142.714 135.612 140.866 131.351 141.348C127.814 141.75 124.276 143.196 122.267 146.33C120.096 149.625 123.231 155.089 123.714 158.786C123.718 159.253 123.906 159.701 124.236 160.031C124.567 160.362 125.015 160.549 125.482 160.554C126.447 160.634 124.759 158.545 124.598 157.58Z" fill="#7F4341"/>
<path d="M168.331 166.58C172.11 162.964 172.833 162.321 175.245 157.661C175.467 157.24 175.524 156.752 175.405 156.291C175.286 155.83 175 155.431 174.602 155.17C173.798 154.688 173.878 154.286 173.396 155.17C171.175 159.655 168.243 163.753 164.714 167.304C163.99 167.946 159.729 170.036 160.453 170.679C161.176 171.321 165.357 169.152 166.08 168.509L168.331 166.58Z" fill="#7F4341"/>
<path d="M171.306 313.393C178.461 316.929 186.661 318.134 194.539 317.571C200.649 317.17 210.296 316.446 213.029 309.857C218.818 295.795 224.606 280.366 230.474 265.982C232.323 261.482 227.42 258.67 223.963 257.223C217.823 254.86 211.219 253.952 204.669 254.571C199.523 254.973 190.278 256.661 187.304 261.562L185.776 264.616L171.306 313.393Z" fill="#E48929"/>
<path d="M176.773 315.643L177.657 315.723C182.32 316.045 205.151 317.25 213.431 308.893L214.476 306.241L176.773 315.643Z" fill="#C05929"/>
<path d="M225.731 275.625C227.098 276.027 228.384 276.429 229.671 276.911L230.153 277.071C230.41 277.174 230.653 277.309 230.876 277.473C231.118 277.634 231.359 277.714 231.6 277.875L231.922 278.116C232.324 278.357 231.68 277.955 232.002 278.196C232.832 278.845 233.482 279.695 233.89 280.665C234.298 281.636 234.451 282.695 234.333 283.741C233.931 288.562 229.51 291.616 225.008 292.339C224.525 292.42 225.329 292.339 224.847 292.339L224.284 292.42H222.194C222.033 292.42 221.31 292.339 221.551 292.339C220.2 292.183 218.891 291.775 217.692 291.134C217.1 290.807 216.406 290.717 215.75 290.881C215.094 291.045 214.524 291.451 214.155 292.018C213.981 292.312 213.868 292.638 213.823 292.977C213.777 293.315 213.8 293.66 213.89 293.989C213.98 294.319 214.135 294.627 214.346 294.896C214.557 295.165 214.82 295.388 215.12 295.553C218.047 297.049 221.332 297.705 224.609 297.45C227.887 297.194 231.03 296.037 233.69 294.107C236.584 291.937 238.835 288.884 239.318 285.268C239.638 283.539 239.566 281.761 239.107 280.064C238.647 278.368 237.813 276.796 236.665 275.464C234.253 272.652 230.475 271.527 227.018 270.482C223.882 269.679 222.516 274.661 225.731 275.625Z" fill="#E48929"/>
<path d="M181.676 282.134C181.991 284.312 182.745 286.404 183.892 288.282C185.039 290.161 186.555 291.787 188.349 293.062C191.886 295.714 197.996 297.321 202.337 297.723C200.89 299.812 196.71 300.696 194.218 301.339C191.716 302.036 189.067 302.008 186.58 301.259C182.882 300.054 180.149 296.839 178.782 293.223C177.553 289.549 177.276 285.623 177.978 281.812" fill="#C05929"/>
<path d="M148.716 120.375C143.249 93.3749 168.492 67.3392 193.253 61.0713C242.855 48.616 249.045 122.464 206.437 148.982C197.433 154.527 184.731 143.598 174.522 140.786C164.312 137.973 155.227 130.821 150.886 121.178" fill="#32142A"/>
<path d="M185.937 69.1875C170.1 71.4375 170.582 42.0268 185.696 39.0536C191.725 37.8482 198.8 39.9375 202.82 44.5982C205.312 47.4911 209.974 65.9732 203.463 66.7768C197.594 67.5 191.725 68.3036 185.937 69.1875Z" fill="#32142A"/>
<path d="M145.42 145.527C145.018 146.25 152.575 142.553 152.816 143.277C154.665 148.178 158.765 151.473 163.267 154.045C168.171 156.857 176.933 164.491 182.561 164.491C195.022 164.33 207.241 149.464 215.12 139.821C223.48 129.616 226.053 117.562 228.304 104.625C228.786 101.812 228.867 98.6785 227.178 96.4285C226.187 95.21 224.92 94.2458 223.48 93.616C209.974 86.7856 193.092 90.7231 180.712 99.4017C169.618 107.277 161.498 118.366 153.861 129.616C151.61 132.991 150.082 137.491 145.42 145.527Z" fill="#FFC9A0"/>
<path d="M156.594 129.777C149.761 129.134 145.018 120.938 147.269 114.509C149.52 108.08 157.72 104.625 164.151 106.955C170.582 109.286 174.602 116.679 173.637 123.509" fill="#FFC9A0"/>
<path d="M134.888 159.75L151.931 136.607C152.261 136.019 152.81 135.586 153.459 135.402C153.786 135.423 154.106 135.513 154.397 135.665C154.687 135.817 154.943 136.029 155.147 136.286C159.167 139.982 163.508 144.402 163.106 149.866C162.945 152.518 161.578 154.929 160.292 157.259L150.404 174.938L134.888 159.75Z" fill="#FFC9A0"/>
<path d="M130.145 151.714C79.1764 174.455 51.6823 227.813 38.6588 279.482C33.6745 299.089 31.3431 318.616 29.7353 338.705C29.4941 341.679 27.7254 387.804 26.198 387.804C68.8862 387.884 92.2804 381.938 134.888 382.018C125.723 303.509 139.069 239.625 155.629 175.018L130.145 151.714Z" fill="#FAC7B7"/>
<path d="M230.716 95.2231C230.423 94.3578 230.046 93.5234 229.59 92.7321C224.767 83.7321 213.19 81.1606 203.784 82.9285C192.127 85.1785 181.918 92.7321 172.914 101.089C169.376 104.384 163.025 109.607 162.222 112.178C161.418 114.75 178.863 121.5 182.561 121.982C192.288 123.348 202.418 122.062 211.824 119.25C216.647 117.803 223.882 116.518 227.982 113.464C228.947 112.661 233.047 101.732 230.716 95.2231Z" fill="#32142A"/>
<path d="M154.343 331.795C157.88 323.277 166.884 318.134 175.888 315.884C184.892 313.634 194.298 313.473 203.302 311.223C212.306 308.973 221.39 303.991 225.008 295.554C226.455 292.179 225.892 286.795 222.194 286.554C220.798 286.603 219.451 287.08 218.335 287.92C213.753 290.732 209.573 294.188 204.829 296.679C200.086 299.17 194.539 300.777 189.314 299.491C184.088 298.205 179.506 293.545 179.667 288.161C179.92 285.848 180.378 283.563 181.033 281.33C181.435 279.884 176.049 282.857 174.602 284.464C173.155 286.072 171.627 287.679 170.984 289.768C167.045 302.464 154.504 310.098 142.927 316.607" fill="#FFC9A0"/>
<path d="M155.227 124.312C152.816 122.143 150.243 118.205 152.092 114.911C152.98 113.47 154.288 112.336 155.841 111.661C157.393 110.986 159.115 110.802 160.774 111.134C161.9 111.375 162.382 109.607 161.257 109.366C157.237 108.643 152.574 110.25 150.565 114.027C148.314 118.045 150.886 122.866 154.022 125.598C154.825 126.402 156.112 125.116 155.227 124.312Z" fill="#32142A"/>
<path d="M158.041 120.696C157.8 120.375 157.559 119.973 157.318 119.652C157.194 119.446 157.087 119.231 156.996 119.009C156.916 118.848 156.835 118.768 156.835 118.607C156.744 118.404 156.69 118.186 156.674 117.964C156.755 118.125 156.674 117.884 156.674 117.884V117.241C156.669 117.197 156.674 117.153 156.688 117.112C156.702 117.07 156.724 117.032 156.755 117C156.755 116.92 156.755 116.92 156.835 116.839C156.916 116.759 156.916 116.679 156.996 116.598C157.076 116.518 157.157 116.357 157.076 116.518L157.237 116.357L157.318 116.277C157.398 116.196 157.478 116.196 157.559 116.116C157.398 116.196 157.559 116.116 157.639 116.116C157.72 116.116 157.8 116.036 157.88 116.036H159.327L159.569 116.116L160.131 116.277C160.366 116.362 160.625 116.351 160.851 116.245C161.077 116.14 161.252 115.949 161.337 115.714C161.422 115.48 161.411 115.221 161.306 114.995C161.2 114.769 161.009 114.594 160.774 114.509C160.694 114.509 160.694 114.509 160.614 114.429C159.656 114.11 158.636 114.027 157.639 114.188C157.154 114.26 156.691 114.442 156.287 114.721C155.883 114.999 155.548 115.367 155.308 115.795C155.069 116.248 154.924 116.746 154.883 117.257C154.841 117.768 154.904 118.282 155.067 118.768C155.364 119.806 155.885 120.766 156.594 121.58C156.744 121.768 156.957 121.895 157.193 121.939C157.429 121.983 157.672 121.941 157.88 121.821C158.002 121.664 158.08 121.477 158.108 121.28C158.137 121.083 158.113 120.882 158.041 120.696Z" fill="#32142A"/>
<path d="M208.286 301.5C210.778 299.973 213.11 298.366 215.522 296.679C219.059 294.188 222.837 291.857 225.169 288.08C226.053 286.634 223.802 285.348 222.918 286.795C220.747 290.25 217.049 292.42 213.833 294.67C211.582 296.277 209.251 297.804 206.92 299.25C205.553 300.134 206.839 302.384 208.286 301.5Z" fill="#EFB086"/>
<path d="M213.833 304.152C216.447 302.54 218.921 300.712 221.229 298.687C223.4 296.679 225.41 294.348 227.42 292.098C228.545 290.893 226.696 289.045 225.571 290.25C223.561 292.42 221.631 294.67 219.461 296.679C217.32 298.602 215.005 300.324 212.547 301.821C211.18 302.786 212.467 305.036 213.833 304.152Z" fill="#EFB086"/>
<path d="M221.792 266.545C220.586 266.625 219.461 266.545 218.255 266.545C215.682 266.545 213.11 266.464 210.537 266.223C205.241 265.839 200.007 264.842 194.941 263.25C193.494 262.768 191.725 261.723 192.208 260.357C192.529 259.554 193.494 259.152 194.378 258.83C203.865 255.777 209.251 255.696 222.757 259.795C224.767 260.438 229.59 262.768 227.5 264.777C227.016 265.22 226.439 265.549 225.812 265.741C224.518 266.201 223.164 266.471 221.792 266.545Z" fill="#32142A"/>
<path d="M198.237 126C202.659 124.232 208.045 124.393 212.708 125.197C212.987 125.292 213.283 125.331 213.578 125.309C213.873 125.288 214.16 125.207 214.423 125.072C214.685 124.937 214.918 124.75 215.107 124.523C215.296 124.296 215.437 124.033 215.522 123.75C216.084 122.143 214.396 121.098 213.029 120.616C209.01 119.25 204.588 119.652 200.569 120.857C198.531 121.514 196.564 122.376 194.7 123.429C193.494 124.152 190.359 125.598 190.6 127.366C190.922 129.777 196.629 126.643 197.674 126.161L198.237 126Z" fill="#32142A"/>
<path d="M181.516 113.304C190.359 113.786 195.424 114.027 203.945 111.295C210.354 109.331 216.199 105.858 220.988 101.17C223.561 98.5179 224.365 92.4108 225.169 88.7144C225.651 86.4644 223.4 90.3215 222.274 92.9733C219.943 98.5983 216.647 100.848 211.663 103.822C205.887 107.367 199.363 109.513 192.61 110.089C187.465 110.411 183.043 110.973 173.637 110.893C171.306 110.893 175.004 112.902 177.335 113.063L181.516 113.304Z" fill="#7F4341"/>
<path d="M166 93.6161C167.769 89.6786 170.743 86.625 174.12 83.9732C179.425 79.7038 185.296 76.1884 191.565 73.5268C194.62 72.2411 197.996 70.7143 201.292 70.1518C204.427 69.5893 207.884 71.5179 210.618 72.8036C212.036 73.3381 213.385 74.0395 214.637 74.8929C215.29 75.388 215.792 76.0561 216.084 76.8214C216.406 78.3482 214.959 78.4286 213.753 78.5089C207.804 78.75 201.533 78.9107 195.665 80.3571C189.796 81.8036 184.973 85.1786 180.229 88.9554C179.425 89.5982 177.094 92.4107 177.737 93.0536C178.38 93.6964 183.284 88.7946 184.088 88.1518C187.187 85.5281 190.802 83.5843 194.7 82.4464C200.006 80.6786 206.598 82.4464 212.145 82.2054C215.039 82.0446 222.435 82.8482 221.631 81.2411C220.827 79.6339 217.773 72.4018 214.798 70.875C211.78 69.261 208.6 67.9682 205.312 67.0179C203.932 66.6028 202.484 66.4662 201.051 66.6161C199.798 66.8521 198.562 67.1742 197.353 67.5804C190.466 69.6792 184.088 73.1813 178.622 77.8661C172.351 83.3304 166.161 88.875 162.784 96.5893C161.739 98.6786 165.035 95.7857 166 93.6161Z" fill="#7F4341"/>
<path d="M188.349 101.33C197.112 103.741 205.794 101.25 211.341 93.8572C211.904 93.0536 214.074 88.7947 213.673 88.7947C213.271 88.7947 212.065 90.9643 211.502 91.7679C206.92 97.875 195.745 100.929 188.51 100.125C182.078 99.4822 186.018 100.768 188.349 101.33Z" fill="#7F4341"/>
<path d="M163.427 301.821L165.437 299.571L173.637 316.527L170.02 317.812L163.427 301.821Z" fill="#EFB086"/>
<path d="M162.222 153.563L152.816 143.357L158.202 161.116L162.222 153.563Z" fill="#EFB086"/>
<path d="M204.267 130.179C202.096 130.339 199.363 132.027 199.363 134.036C199.363 136.688 202.9 135.563 204.106 134.679C204.99 134.036 206.598 133.072 206.678 131.866C206.759 130.661 205.633 130.098 204.267 130.179Z" fill="#32142A"/>
<path d="M214.718 136.929C212.788 137.893 210.859 140.464 211.663 142.393C212.708 144.884 215.522 142.473 216.325 141.107C216.888 140.223 218.014 138.696 217.612 137.491C217.21 136.286 215.923 136.286 214.718 136.929Z" fill="#32142A"/>
<path d="M26.198 360.964C27.0823 351.241 25.0725 339.348 24.9921 329.625C24.9117 321.75 24.4294 315.804 26.9215 308.411C27.1169 307.877 27.5087 307.439 28.0168 307.185C28.5249 306.931 29.1109 306.881 29.6549 307.045C29.9682 307.159 30.2528 307.341 30.4888 307.577C30.7248 307.813 30.9066 308.097 31.0215 308.411C33.3529 315.241 37.2921 322.232 38.8196 329.384C38.8357 329.513 38.8784 329.637 38.9449 329.748C39.0115 329.86 39.1004 329.957 39.2062 330.032C39.3119 330.108 39.4322 330.16 39.5594 330.187C39.6865 330.214 39.8179 330.214 39.9451 330.187C40.111 330.152 40.2649 330.074 40.3917 329.961C40.5185 329.849 40.6139 329.705 40.6686 329.545C41.9549 325.125 42.1157 320.384 42.6784 315.804C43.0024 312.496 43.8716 309.265 45.251 306.241C45.7118 305.359 46.4975 304.689 47.4423 304.375C48.3871 304.06 49.4172 304.124 50.3157 304.554C50.7536 304.752 51.1447 305.041 51.4633 305.401C51.7819 305.761 52.0209 306.184 52.1647 306.643L55.7823 316.446C56.4424 318.289 57.2212 320.088 58.1137 321.83C59.7079 324.373 61.7508 326.606 64.1431 328.42C75.3176 337.661 90.0294 341.839 104.5 342.482C118.971 343.125 133.441 340.312 147.429 336.696L134.808 361.446L135.853 424.366H26.0372L26.198 360.964Z" fill="#E48929"/>
<path d="M62.8568 360.804C58.6764 351.482 53.2902 335.089 50.9588 326.411C45.8941 307.687 41.8745 288.482 43.3215 269.116L47.1 262.125C61.0882 293.062 76.6039 325.768 105.304 343.929C106.671 344.812 108.118 345.696 108.922 347.062C109.645 348.268 132.476 346.259 132.557 347.705C132.959 352.205 134.004 356.304 134.969 361.366L62.8568 360.804Z" fill="#E48929"/>
<path d="M93.1647 240.991C95.898 219.536 107.555 198.804 108.359 177.188C108.439 174.616 108.359 171.964 106.831 169.875C102.892 164.33 94.1294 167.947 88.9843 172.286C60.7667 195.83 42.598 231.83 43.1608 268.554C43.3216 278.759 44.849 288.884 46.8588 298.929C50.1549 315.563 55.0588 332.759 67.1176 344.732C82.2314 359.679 105.867 363.054 126.608 358.714C147.349 354.375 166.08 343.286 184.329 332.438C175.647 310.982 166.965 289.58 158.282 268.232C147.671 274.741 136.576 281.491 124.196 282.697C109.002 284.143 96.3 274.982 93.4863 259.875C92.3751 253.638 92.2665 247.263 93.1647 240.991Z" fill="#FAC7B7"/>
<path d="M96.3 170.518C99.4353 169.393 102.892 169.152 105.706 171.161C108.198 172.848 109.404 175.982 109.645 178.875C109.794 180.933 109.577 183.001 109.002 184.982C108.906 185.313 108.945 185.667 109.111 185.969C109.277 186.27 109.556 186.493 109.886 186.589C110.217 186.685 110.572 186.646 110.873 186.48C111.175 186.314 111.398 186.036 111.494 185.705C112.692 181.735 112.464 177.472 110.851 173.652C110.147 171.993 109.032 170.539 107.612 169.429C106.192 168.318 104.512 167.587 102.731 167.304C100.29 166.968 97.8038 167.244 95.4961 168.107C94.049 168.589 94.6922 171.08 96.3 170.518Z" fill="#F9A793"/>
<path d="M49.6725 311.545C48.7882 308.009 80.9451 314.116 83.598 314.759C89.2254 316.045 90.7529 319.902 92.3607 325.045C95.898 336.696 99.596 348.348 102.571 360.161C102.651 360.08 62.2137 361.527 49.6725 311.545Z" fill="#F9B7A5"/>
<path d="M157.8 267.027C152.916 269.943 147.808 272.469 142.525 274.58C137.672 276.653 132.674 278.372 127.573 279.723C122.735 281.103 117.603 281.075 112.78 279.643C107.314 278.036 102.088 274.821 99.1137 269.92C95.9589 264.478 94.321 258.29 94.3706 252C94.3706 251.659 94.2351 251.332 93.9938 251.091C93.7526 250.85 93.4254 250.714 93.0843 250.714C92.7432 250.714 92.416 250.85 92.1748 251.091C91.9335 251.332 91.798 251.659 91.798 252C91.784 257.871 93.1034 263.668 95.6568 268.955C98.3902 274.58 102.973 278.438 108.68 280.929C114.025 283.315 119.97 284.015 125.724 282.938C130.832 281.744 135.833 280.131 140.676 278.116C146.958 275.781 153.013 272.876 158.765 269.438L157.8 267.027Z" fill="#F9A793"/>
<path d="M209.09 135.321C208.769 135.562 208.447 135.804 208.206 135.964C204.91 138.777 202.096 142.393 199.122 145.607C198.607 146.035 198.264 146.634 198.157 147.295C198.157 148.098 198.88 148.741 199.604 149.223C202.176 151.071 205.151 153 208.608 150.509C209.955 149.474 210.941 148.04 211.422 146.411C212.529 142.953 213.125 139.353 213.19 135.723C213.271 132.911 210.778 134.196 209.09 135.321Z" fill="#E48929"/>
<path d="M204.347 395.839C204.347 395.839 223.561 244.286 364.89 232.634L372.929 220.018L420.361 216L426.471 232.634C426.471 232.634 488.051 268.473 480.012 340.071L412.322 368.036V398.652L204.347 395.839Z" fill="#39B55D"/>
<path d="M420.441 216C420.441 216 415.859 175.339 415.216 171.563C413.849 164.25 412.643 151.313 409.588 144.563C404.926 134.277 392.224 129.054 381.29 131.866C368.829 135 360.147 147.696 355.324 158.866C350.822 169.232 340.773 200.571 350.822 210.134C358.298 217.286 373.492 212.866 381.29 208.446L379.441 219.616L420.441 216Z" fill="#B26D55"/>
<path d="M410.875 172.527C411.116 169.393 414.09 167.304 416.984 166.098C419.044 165.144 421.312 164.73 423.576 164.893C424.7 164.984 425.787 165.337 426.75 165.923C427.713 166.509 428.526 167.312 429.123 168.268C429.749 169.452 430.027 170.789 429.927 172.125C429.767 176.143 427.275 179.679 424.782 182.893C421.245 187.634 417.386 192.616 411.839 194.705" fill="#B26D55"/>
<path d="M412.322 368.036C411.116 347.223 409.91 326.33 412.08 305.518C414.251 284.705 415.135 250.071 426.471 232.634C441.825 241.955 463.773 265.661 470.606 282.294C477.278 298.446 482.665 309.857 480.012 340.071L412.322 368.036Z" fill="#39B55D"/>
<path d="M364.89 232.634L357.253 244.446L353.073 233.92C352.992 234 361.273 232.634 364.89 232.634Z" fill="#194429"/>
<path d="M351.867 180.804C350.586 184.794 349.776 188.92 349.455 193.098C349.36 194.148 349.554 195.204 350.018 196.152C350.106 196.346 350.245 196.512 350.42 196.634C350.627 196.7 350.845 196.727 351.063 196.714C354.037 196.554 357.092 196.393 359.825 195.187C360.305 195.016 360.723 194.709 361.031 194.304C361.187 194.04 361.289 193.747 361.33 193.444C361.371 193.14 361.352 192.832 361.273 192.536C360.469 187.473 356.851 184.018 354.359 179.116C354.208 178.884 353.978 178.715 353.711 178.641C353.445 178.567 353.16 178.593 352.912 178.714C352.816 178.764 352.731 178.832 352.662 178.914C352.593 178.997 352.541 179.093 352.51 179.196C352.269 179.679 352.108 180.241 351.867 180.804Z" fill="#C05929"/>
<path d="M480.012 340.072C479.5 360.87 476.256 381.511 470.365 401.464C466.747 414 463.129 437.304 452.437 445.982C442.388 454.018 426.551 447.67 416.18 443.571C402.514 438.188 388.686 434.17 375.02 429.107C357.253 422.518 330.482 418.661 310.867 420.348C301.3 421.232 297.361 414.241 287.875 415.205C286.186 415.366 284.257 415.527 282.89 414.563C281.849 413.742 281.045 412.661 280.559 411.429L275.896 402.188C275.098 400.911 274.68 399.434 274.69 397.929C274.851 395.598 276.861 393.83 278.871 392.545C289.161 385.634 301.461 382.42 313.761 380.732C348.329 375.991 382.737 383.786 413.126 400.902C413.447 389.813 413.769 382.982 414.412 367.152L480.012 340.072Z" fill="#B26D55"/>
<path d="M338.843 411.75C343.667 413.437 356.369 413.116 359.665 416.25C363.122 419.464 333.618 420.67 330 421.071C301.541 423.723 273.082 425.411 244.543 426.536C217.371 427.58 188.188 430.955 161.257 426.857C150.243 425.17 146.465 420.428 145.902 409.42C144.616 382.5 143.41 355.5 142.123 328.58C142.012 325.964 142.856 323.397 144.497 321.357C146.139 319.317 148.467 317.943 151.047 317.491C198.162 309.703 245.938 306.634 293.663 308.33C295.398 308.385 297.055 309.067 298.326 310.249C299.597 311.43 300.396 313.033 300.576 314.759C301.863 328.259 306.686 359.598 307.651 363.214C310.384 373.42 313.278 383.946 318.745 393.027C323.569 401.223 326.865 407.652 338.843 411.75Z" fill="#194429"/>
<path d="M413.608 172.848C415.221 172.358 416.783 171.712 418.271 170.92C419.637 170.357 421.647 169.473 423.094 170.357C423.978 170.839 423.898 171.884 423.818 172.768C423.689 173.775 423.474 174.77 423.175 175.741C422.599 177.682 421.731 179.525 420.602 181.205C419.238 183.137 417.377 184.664 415.216 185.625C414.171 186.107 415.055 187.634 416.1 187.152C420.522 185.143 423.416 180.964 424.782 176.384C425.1 175.249 425.342 174.095 425.506 172.928C425.728 171.798 425.528 170.626 424.943 169.634C423.657 167.866 421.245 167.946 419.396 168.509C417.226 169.152 415.216 170.437 413.045 171C412.933 171.034 412.828 171.091 412.738 171.167C412.648 171.243 412.575 171.336 412.522 171.442C412.47 171.547 412.439 171.662 412.432 171.779C412.425 171.897 412.442 172.014 412.482 172.125C412.556 172.358 412.709 172.558 412.914 172.69C413.12 172.822 413.365 172.878 413.608 172.848Z" fill="#32142A"/>
<path d="M412.643 177.348C413.219 177.169 413.783 176.955 414.331 176.705C414.634 176.621 414.93 176.514 415.216 176.384C415.376 176.304 415.537 176.304 415.698 176.223L415.859 176.143C415.859 176.143 416.1 176.063 415.939 176.143H416.502C416.582 176.143 416.743 176.223 416.582 176.143C416.422 176.063 416.663 176.223 416.663 176.223L416.823 176.384L416.904 176.545C416.904 176.625 416.984 176.705 416.984 176.786C416.823 176.545 416.984 176.866 416.984 176.866V176.946C416.904 176.786 416.984 176.786 416.984 176.946V177.268C416.984 177.348 416.904 177.429 416.984 177.188V177.268C416.988 177.38 416.96 177.492 416.904 177.589L416.823 177.75C416.73 177.945 416.622 178.133 416.502 178.313L416.341 178.634L416.261 178.714C416.1 178.875 416.422 178.554 416.261 178.795C415.959 179.161 415.637 179.51 415.296 179.839C415.126 180.02 414.937 180.181 414.733 180.321L414.653 180.402L414.573 180.482L414.251 180.723C413.867 180.994 413.464 181.235 413.045 181.446L412.723 181.607C412.563 181.688 412.643 181.607 412.723 181.607L412.563 181.688C412.402 181.768 412.241 181.768 412.08 181.848C411.964 181.88 411.855 181.934 411.76 182.008C411.665 182.081 411.585 182.173 411.526 182.278C411.466 182.382 411.427 182.497 411.412 182.617C411.397 182.736 411.406 182.857 411.437 182.973C411.469 183.089 411.523 183.198 411.597 183.293C411.671 183.388 411.762 183.468 411.867 183.528C411.971 183.587 412.087 183.626 412.206 183.641C412.325 183.656 412.447 183.648 412.563 183.616C413.464 183.38 414.31 182.971 415.055 182.411C416.004 181.772 416.868 181.016 417.627 180.161C418.374 179.34 418.826 178.294 418.914 177.188C418.902 176.554 418.671 175.944 418.261 175.46C417.851 174.977 417.286 174.651 416.663 174.536C415.135 174.375 413.688 175.339 412.241 175.661C412.125 175.692 412.016 175.747 411.921 175.82C411.826 175.894 411.746 175.986 411.686 176.09C411.627 176.195 411.588 176.31 411.573 176.429C411.558 176.548 411.566 176.67 411.598 176.786C411.598 177.268 412.08 177.509 412.643 177.348Z" fill="#32142A"/>
<path d="M363.282 254.411C367.865 245.411 372.608 236.571 377.592 227.732C378.396 226.286 376.145 225 375.341 226.446C370.437 235.205 365.694 244.125 361.031 253.125C360.308 254.652 362.559 255.937 363.282 254.411Z" fill="#194429"/>
<path d="M398.173 256.179L401.308 223.393C401.469 221.705 398.896 221.786 398.735 223.393L395.6 256.259C395.439 257.866 398.012 257.866 398.173 256.179Z" fill="#194429"/>
<path d="M410.071 246.616V225.402C410.071 225.061 409.935 224.734 409.694 224.493C409.453 224.251 409.125 224.116 408.784 224.116C408.443 224.116 408.116 224.251 407.875 224.493C407.634 224.734 407.498 225.061 407.498 225.402V246.616C407.496 246.785 407.528 246.954 407.592 247.111C407.655 247.268 407.75 247.41 407.87 247.53C407.99 247.65 408.132 247.744 408.29 247.808C408.447 247.872 408.615 247.904 408.784 247.902C409.123 247.894 409.445 247.755 409.685 247.516C409.924 247.277 410.062 246.954 410.071 246.616Z" fill="#194429"/>
<path d="M387.882 250.473C388.541 244.418 389.562 238.407 390.937 232.473C391.339 230.866 388.847 230.143 388.445 231.75C387.004 237.891 385.956 244.118 385.31 250.393C385.308 250.562 385.339 250.73 385.403 250.887C385.467 251.044 385.562 251.187 385.682 251.307C385.802 251.427 385.944 251.521 386.101 251.585C386.258 251.649 386.427 251.681 386.596 251.679C386.926 251.687 387.246 251.566 387.487 251.34C387.728 251.114 387.87 250.803 387.882 250.473Z" fill="#194429"/>
<path d="M374.939 255.455L386.114 225.723C386.676 224.196 384.184 223.473 383.622 225L372.447 254.732C371.884 256.259 374.376 256.982 374.939 255.455Z" fill="#194429"/>
<path d="M414.09 221.866C416.261 228.295 418.753 234.643 420.763 241.152C420.859 241.482 421.082 241.761 421.384 241.927C421.685 242.092 422.04 242.132 422.371 242.036C422.701 241.94 422.98 241.717 423.146 241.415C423.312 241.114 423.351 240.759 423.255 240.429C421.326 233.92 418.833 227.571 416.582 221.143C416.02 219.616 413.527 220.339 414.09 221.866Z" fill="#194429"/>
<path d="M414.412 367.152C414.251 348.348 414.653 329.464 415.618 310.741C415.859 305.437 416.18 300.134 416.582 294.83C416.663 293.143 414.09 293.143 414.01 294.83C412.723 313.58 412 332.384 411.839 351.241C411.759 356.545 411.759 362.973 411.759 368.277L414.412 367.152Z" fill="#194429"/>
<path d="M399.057 393.75L414.573 330.75L414.653 401.705L399.057 393.75Z" fill="#194429"/>
<path d="M414.573 400.741C416.975 402.015 419.193 403.61 421.165 405.482L414.653 389.652L414.573 400.741Z" fill="#A05744"/>
<path d="M372.045 172.045C371.241 173.813 371.402 176.143 371.643 178.071C372.125 181.366 374.939 180.402 375.824 177.83C376.547 175.741 376.869 172.929 375.582 171.08C374.296 169.232 372.769 170.357 372.045 172.045Z" fill="#32142A"/>
<path d="M344.551 175.661C343.896 177.601 343.758 179.678 344.149 181.688C344.631 184.982 347.445 184.018 348.329 181.447C349.053 179.357 349.374 176.545 348.088 174.696C346.802 172.848 345.274 174.054 344.551 175.661Z" fill="#32142A"/>
<path d="M355.082 176.384C355.645 175.982 356.208 175.661 356.69 175.259C357.222 174.879 357.823 174.606 358.459 174.455C360.227 174.134 362.157 173.893 363.684 175.018C363.886 175.118 364.117 175.137 364.332 175.072C364.548 175.008 364.73 174.863 364.842 174.669C364.955 174.475 364.989 174.245 364.939 174.026C364.888 173.807 364.755 173.616 364.569 173.491C362.72 172.125 360.388 172.366 358.298 172.688C356.758 173.083 355.328 173.825 354.118 174.857C353.92 174.979 353.777 175.172 353.717 175.396C353.657 175.62 353.685 175.859 353.796 176.063C353.938 176.259 354.145 176.399 354.38 176.458C354.616 176.517 354.864 176.491 355.082 176.384Z" fill="#32142A"/>
<path d="M355.243 158.705C354.841 159.911 383.863 148.179 397.047 145.607L402.112 181.688C405.241 176.513 409.302 171.963 414.09 168.268C414.09 168.268 416.984 130.018 390.535 130.259C390.535 130.259 365.373 129.295 355.243 158.705Z" fill="#FAC7B7"/>
<path d="M370.92 164.411C371.482 164.411 372.126 164.33 372.688 164.33C375.796 164.058 378.918 164.671 381.692 166.098C384.024 167.223 386.194 168.67 388.526 169.795C389.329 170.197 390.294 170.518 390.857 169.634C391.024 169.252 391.103 168.837 391.089 168.42C391.075 168.003 390.968 167.594 390.777 167.223C389.098 163.627 386.454 160.567 383.139 158.384C380.797 157.109 378.17 156.445 375.502 156.455C373.251 156.455 368.186 156.938 366.257 158.304C363.845 159.991 367.061 163.447 369.714 164.25C370.109 164.348 370.513 164.402 370.92 164.411Z" fill="#FAC7B7"/>
<path d="M352.992 162.321C350.58 161.518 342.702 162.08 340.531 163.768C338.522 165.214 339.888 165.616 341.898 167.062C342.702 167.625 346.159 168.027 347.124 168.107C355.726 169.232 356.851 168.911 357.575 167.062C357.621 166.931 357.638 166.791 357.624 166.652C357.61 166.513 357.566 166.379 357.494 166.259C356.931 164.571 355.404 163.446 353.877 162.643C353.475 162.482 353.233 162.402 352.992 162.321Z" fill="#FAC7B7"/>
<path d="M342.863 165.054C336.753 165.295 332.09 170.679 331.286 176.545C330.884 179.759 331.206 183.214 333.135 185.946C334.768 188.349 337.229 190.066 340.049 190.768C346.078 192.295 352.349 188.679 354.6 182.973C355.279 181.203 355.587 179.313 355.504 177.419C355.421 175.525 354.949 173.668 354.118 171.964C353.117 169.843 351.52 168.059 349.521 166.832C347.522 165.604 345.208 164.986 342.863 165.054C342.745 165.059 342.629 165.089 342.524 165.142C342.418 165.194 342.324 165.268 342.249 165.359C342.173 165.45 342.117 165.555 342.084 165.669C342.052 165.782 342.043 165.901 342.059 166.018C342.087 166.221 342.18 166.41 342.326 166.555C342.471 166.7 342.659 166.794 342.863 166.821C344.642 166.777 346.401 167.199 347.966 168.045C349.532 168.891 350.849 170.131 351.786 171.643C353.05 173.549 353.721 175.785 353.716 178.071C353.721 180.812 352.716 183.459 350.891 185.505C349.067 187.55 346.552 188.852 343.827 189.161C342.518 189.278 341.199 189.136 339.944 188.742C338.69 188.349 337.526 187.713 336.518 186.869C335.51 186.026 334.678 184.992 334.07 183.827C333.462 182.663 333.09 181.389 332.974 180.08V179.839C332.687 176.599 333.603 173.367 335.547 170.759C336.415 169.613 337.515 168.662 338.776 167.97C340.037 167.278 341.429 166.859 342.863 166.741C342.974 166.741 343.083 166.719 343.186 166.677C343.288 166.634 343.381 166.572 343.46 166.494C343.538 166.416 343.6 166.323 343.643 166.22C343.685 166.118 343.707 166.008 343.707 165.897C343.707 165.787 343.685 165.677 343.643 165.574C343.6 165.472 343.538 165.379 343.46 165.301C343.381 165.222 343.288 165.16 343.186 165.118C343.083 165.075 342.974 165.054 342.863 165.054Z" fill="#32142A"/>
<path d="M375.1 159.589C368.99 159.83 364.327 165.214 363.524 171.08C363.122 174.295 363.443 177.75 365.373 180.482C367.005 182.885 369.467 184.601 372.286 185.304C378.316 186.83 384.586 183.214 386.837 177.509C387.514 175.752 387.821 173.875 387.738 171.994C387.655 170.114 387.184 168.27 386.355 166.58C385.349 164.458 383.752 162.67 381.756 161.43C379.76 160.19 377.45 159.551 375.1 159.589C374.845 159.614 374.61 159.737 374.445 159.932C374.28 160.127 374.198 160.379 374.216 160.634C374.244 160.837 374.337 161.026 374.482 161.171C374.628 161.316 374.816 161.41 375.02 161.437C376.798 161.393 378.558 161.815 380.123 162.661C381.689 163.507 383.006 164.747 383.943 166.259C385.171 168.181 385.839 170.407 385.872 172.687C385.878 175.428 384.872 178.075 383.048 180.121C381.224 182.167 378.709 183.468 375.984 183.777C374.675 183.894 373.355 183.752 372.101 183.358C370.847 182.965 369.683 182.329 368.675 181.486C367.667 180.642 366.835 179.608 366.227 178.444C365.619 177.279 365.247 176.005 365.131 174.696V174.455C364.844 171.215 365.76 167.983 367.704 165.375C368.572 164.229 369.672 163.278 370.933 162.586C372.194 161.894 373.586 161.475 375.02 161.357C375.136 161.362 375.252 161.345 375.361 161.305C375.47 161.266 375.571 161.205 375.657 161.127C375.742 161.048 375.812 160.954 375.861 160.849C375.911 160.743 375.939 160.629 375.944 160.513C375.949 160.397 375.932 160.281 375.892 160.172C375.853 160.063 375.792 159.962 375.713 159.877C375.635 159.791 375.541 159.721 375.435 159.672C375.33 159.623 375.216 159.595 375.1 159.589Z" fill="#32142A"/>
<path d="M388.204 175.098C397.69 172.607 407.016 169.875 416.341 166.821C416.576 166.757 416.775 166.603 416.896 166.392C417.016 166.181 417.048 165.931 416.984 165.696C416.92 165.462 416.766 165.263 416.555 165.142C416.344 165.021 416.093 164.99 415.859 165.054C406.614 168.107 397.208 170.839 387.722 173.33C387.49 173.419 387.301 173.594 387.196 173.819C387.091 174.044 387.078 174.301 387.159 174.536C387.247 174.732 387.397 174.893 387.586 174.995C387.775 175.096 387.992 175.133 388.204 175.098Z" fill="#32142A"/>
<path d="M358.057 155.571C356.931 150.991 367.141 148.661 367.463 152.598C367.543 153.804 366.418 154.366 365.533 153.402C364.569 152.277 365.292 150.509 365.855 149.384C366.851 147.636 368.33 146.213 370.116 145.286C371.939 144.32 374.039 144.008 376.065 144.402C376.646 144.516 377.177 144.81 377.581 145.243C377.985 145.676 378.242 146.225 378.316 146.813C378.476 147.295 379.039 150.107 377.914 148.982C377.271 148.339 377.592 146.893 377.833 146.17C378.343 144.796 379.33 143.651 380.614 142.943C381.897 142.235 383.393 142.011 384.827 142.313V140.625C383.692 140.824 382.525 140.752 381.422 140.417C380.319 140.082 379.31 139.493 378.476 138.696C376.708 136.768 377.592 134.598 379.682 133.554C380.587 133.098 381.586 132.863 382.599 132.867C383.612 132.871 384.609 133.114 385.51 133.576C386.411 134.038 387.19 134.706 387.784 135.526C388.378 136.346 388.77 137.295 388.927 138.295C389.169 139.42 390.937 138.938 390.696 137.813C389.571 131.946 382.335 128.893 377.512 132.83C377.019 133.193 376.603 133.65 376.288 134.174C375.972 134.698 375.764 135.279 375.674 135.884C375.584 136.489 375.615 137.106 375.765 137.699C375.915 138.292 376.181 138.849 376.547 139.339C376.627 139.5 376.788 139.58 376.869 139.741C378.878 142.152 382.175 142.875 385.229 142.473C386.114 142.313 386.033 140.946 385.229 140.705C380.567 139.5 374.537 143.839 375.824 148.982C375.937 149.502 376.193 149.979 376.562 150.362C376.931 150.745 377.399 151.019 377.914 151.152C378.178 151.216 378.452 151.228 378.72 151.186C378.989 151.144 379.246 151.049 379.478 150.907C379.71 150.766 379.911 150.579 380.07 150.359C380.23 150.139 380.344 149.889 380.406 149.625C380.542 148.313 380.348 146.987 379.843 145.768C379.634 145.156 379.296 144.595 378.852 144.124C378.409 143.653 377.869 143.282 377.271 143.036C372.045 141.027 365.694 144.884 363.684 149.705C362.72 152.036 363.122 155.732 366.337 155.893C368.749 155.973 369.633 153.321 368.829 151.393C367.543 148.42 363.604 148.741 361.031 149.545C358.137 150.429 355.404 152.839 356.208 156.214C356.304 156.444 356.485 156.629 356.713 156.73C356.941 156.832 357.199 156.842 357.434 156.761C357.67 156.679 357.865 156.51 357.981 156.289C358.097 156.068 358.124 155.812 358.057 155.571Z" fill="white"/>
<path d="M394.073 144.321C393.831 142.071 393.349 138.857 395.68 137.411C396.187 137.149 396.763 137.055 397.327 137.141C397.89 137.228 398.411 137.491 398.816 137.893C399.708 138.779 400.274 139.94 400.423 141.187C400.504 141.75 400.584 142.393 400.665 143.036C400.665 143.518 400.906 144.321 400.504 144.723C400.102 145.125 400.424 144.241 400.504 144.08C400.768 143.588 401.156 143.172 401.629 142.875C403.478 141.589 406.373 141.027 407.659 143.357C408.159 144.418 408.459 145.562 408.543 146.732C408.624 147.696 409.025 150.187 407.578 150.348C406.453 150.429 406.373 152.277 407.578 152.116C409.508 151.875 410.473 150.187 410.553 148.42C410.62 146.61 410.319 144.806 409.669 143.116C409.377 142.318 408.882 141.61 408.234 141.06C407.586 140.511 406.806 140.139 405.971 139.982C404.081 139.76 402.179 140.278 400.665 141.429C399.459 142.313 397.931 144.241 398.896 145.848C399.861 147.455 402.031 146.411 402.433 144.964C402.66 144.043 402.687 143.084 402.514 142.152C402.462 141.158 402.245 140.181 401.871 139.259C401.599 138.381 401.122 137.58 400.479 136.923C399.836 136.266 399.045 135.772 398.173 135.482C397.227 135.233 396.227 135.303 395.325 135.681C394.424 136.059 393.673 136.723 393.188 137.571C391.902 139.58 392.063 142.071 392.384 144.321C392.384 145.446 394.233 145.446 394.073 144.321Z" fill="white"/>
<path d="M400.584 156.697C400.504 156.295 401.067 155.973 401.388 155.973C401.625 155.948 401.865 155.979 402.088 156.063C402.312 156.146 402.512 156.281 402.674 156.455C403.229 157.083 403.64 157.823 403.88 158.625C404.202 159.509 404.523 160.795 403.961 161.598C403.801 161.843 403.562 162.025 403.283 162.113C403.005 162.201 402.704 162.189 402.433 162.08C401.388 161.357 403.398 160.393 403.961 160.313C404.925 160.152 405.971 159.911 406.533 160.875C407.417 162.681 407.91 164.652 407.98 166.661C408.117 168.581 407.926 170.51 407.418 172.366C407.181 173.305 406.858 174.219 406.453 175.098C406.212 175.661 405.569 177.268 405.086 176.143C404.609 175.201 404.441 174.133 404.604 173.089C404.936 172.211 405.561 171.473 406.372 171C408.061 169.795 409.99 168.83 411.759 167.705C412.723 167.063 411.839 165.536 410.874 166.179L406.855 168.589C405.752 169.145 404.747 169.878 403.88 170.759C402.272 172.607 402.433 175.42 403.72 177.509C403.925 177.921 404.285 178.237 404.721 178.387C405.157 178.537 405.634 178.511 406.051 178.313C407.096 177.83 407.659 176.705 408.141 175.741C409.196 173.306 409.744 170.681 409.749 168.027C409.81 165.375 409.289 162.741 408.222 160.313C408.032 159.803 407.708 159.354 407.283 159.014C406.858 158.674 406.349 158.457 405.81 158.384C404.567 158.236 403.308 158.46 402.192 159.027C400.504 159.911 399.539 162.563 401.549 163.688C403.237 164.652 405.408 163.447 405.89 161.679C406.533 159.429 405.327 155.893 403.318 154.688C401.308 153.482 398.494 154.768 398.896 157.259C398.896 158.304 400.665 157.822 400.584 156.697Z" fill="white"/>
<path d="M413.447 158.786C413.151 158.403 412.883 158 412.643 157.58C412.413 157.181 412.25 156.747 412.161 156.295C412.029 155.852 411.975 155.39 412 154.928V153.723C412 153.803 412 153.482 412.08 153.482C412.127 153.249 412.087 153.006 411.969 152.799C411.851 152.593 411.662 152.436 411.437 152.357C411.321 152.325 411.2 152.317 411.08 152.332C410.961 152.347 410.846 152.386 410.741 152.445C410.637 152.505 410.545 152.585 410.471 152.68C410.398 152.775 410.343 152.884 410.312 153C410.075 154.236 410.11 155.509 410.416 156.731C410.721 157.952 411.289 159.092 412.08 160.071C412.259 160.226 412.487 160.311 412.724 160.311C412.96 160.311 413.188 160.226 413.367 160.071C413.516 159.894 413.604 159.673 413.618 159.442C413.633 159.21 413.573 158.98 413.447 158.786Z" fill="white"/>
<path d="M235.137 362.893C235.539 374.143 228.304 386.116 211.743 380.732C194.218 375.027 212.869 346.5 228.786 354.134C233.208 356.223 235.057 359.438 235.137 362.893Z" fill="#FAC7B7"/>
<path d="M24.9921 396.321C54.3353 396.482 83.7588 395.759 113.102 394.071C121.302 393.589 129.582 393.107 137.782 392.464C138.465 392.464 139.119 392.193 139.601 391.711C140.084 391.229 140.355 390.575 140.355 389.893C140.355 389.211 140.084 388.557 139.601 388.074C139.119 387.592 138.465 387.321 137.782 387.321C108.439 389.491 79.0961 390.696 49.6725 391.098C41.3921 391.178 33.1921 391.178 24.9117 391.178C21.6157 391.178 21.6157 396.321 24.9921 396.321Z" fill="#FAC7B7"/>
<path d="M22.1784 378.723C52.9686 379.286 83.6784 379.527 114.469 379.607H140.274C143.571 379.607 143.651 374.384 140.274 374.464C109.484 374.545 78.7209 374.384 47.9843 373.982C39.3823 373.902 30.7804 373.741 22.1784 373.58C18.8019 373.5 18.8019 378.643 22.1784 378.723Z" fill="#FAC7B7"/>
<path d="M14.7019 362.973C48.3862 364.018 82.0437 363.857 115.674 362.491C125.08 362.089 134.567 361.607 143.973 361.045C147.269 360.804 147.269 355.661 143.973 355.902C110.369 357.991 76.7111 358.848 43 358.473C33.5137 358.393 24.1078 358.152 14.6215 357.83C11.3254 357.75 11.3254 362.893 14.7019 362.973Z" fill="#FAC7B7"/>
<path d="M11.647 345.214C32.549 345.75 53.4778 345.589 74.4333 344.732C77.7294 344.571 77.8098 339.428 74.4333 339.589C53.5313 340.393 32.6026 340.553 11.647 340.071C8.27057 339.991 8.27057 345.134 11.647 345.214Z" fill="#FAC7B7"/>
<path d="M16.149 326.652H70.7353C74.0314 326.652 74.1117 321.428 70.7353 321.428H16.149C12.8529 321.509 12.8529 326.652 16.149 326.652Z" fill="#FAC7B7"/>
<path d="M22.1784 424.286C52.9686 424.848 83.6784 425.089 114.469 425.17H140.274C143.571 425.17 143.651 419.946 140.274 420.027C109.484 420.107 78.7209 419.946 47.9843 419.545C39.3823 419.464 30.7804 419.303 22.1784 419.143C18.8019 419.062 18.8019 424.205 22.1784 424.286Z" fill="#FAC7B7"/>
<path d="M14.7019 409.58C48.3862 410.625 82.0437 410.464 115.674 409.098C125.08 408.696 134.567 408.214 143.973 407.652C147.269 407.41 147.269 402.268 143.973 402.509C110.369 404.598 76.7111 405.455 43 405.08C33.5137 405 24.1078 404.759 14.6215 404.437C11.3254 404.277 11.3254 409.419 14.7019 409.58Z" fill="#FAC7B7"/>
<path d="M356.449 201.536C352.59 205.473 359.424 211.259 363.363 207.723C368.267 203.464 360.71 197.196 356.449 201.536Z" fill="#32142A"/>
<path d="M187.063 145.527C186.545 147.521 186.644 149.625 187.348 151.562C188.051 153.499 189.325 155.177 191.002 156.375C191.102 156.442 191.216 156.488 191.335 156.51C191.454 156.531 191.576 156.528 191.694 156.501C191.811 156.474 191.922 156.422 192.019 156.35C192.117 156.278 192.198 156.187 192.259 156.083C192.319 155.978 192.358 155.862 192.372 155.742C192.386 155.622 192.375 155.501 192.34 155.385C192.305 155.269 192.247 155.162 192.169 155.069C192.091 154.977 191.995 154.902 191.886 154.848C190.556 153.862 189.548 152.503 188.99 150.944C188.432 149.385 188.349 147.695 188.751 146.089C188.791 145.855 188.738 145.615 188.602 145.419C188.467 145.224 188.261 145.089 188.027 145.045C187.933 145.011 187.832 144.996 187.731 145.003C187.631 145.009 187.532 145.035 187.442 145.08C187.352 145.125 187.272 145.188 187.207 145.265C187.142 145.341 187.093 145.431 187.063 145.527Z" fill="#32142A"/>
<path d="M213.351 228.134C211.904 229.741 211.261 231.911 210.135 233.839C209.01 235.768 208.045 238.42 209.492 240.107C210.778 241.554 213.11 241.312 214.798 242.277C215.714 242.837 216.445 243.653 216.902 244.624C217.36 245.595 217.522 246.679 217.371 247.741C217.054 249.843 216.164 251.817 214.798 253.446C211.904 257.104 207.986 259.818 203.543 261.241L209.492 251.116C209.658 250.917 209.78 250.685 209.849 250.436C209.918 250.187 209.934 249.925 209.894 249.67C209.733 249.027 208.929 248.705 208.286 248.464L201.453 246.455C200.167 246.054 198.639 245.491 198.398 244.125C198.34 243.491 198.451 242.854 198.72 242.277C201.214 236.013 205.782 230.793 211.663 227.491C211.663 227.491 216.567 224.518 213.351 228.134Z" fill="white"/>
<path d="M228.626 221.062C227.011 223.256 225.56 225.566 224.284 227.973C223.4 229.661 221.551 232.473 222.355 234.482C223.48 237.214 227.902 235.768 228.867 238.42C230.314 242.437 227.902 246.214 225.49 249.268C223.824 251.414 222.025 253.454 220.104 255.375C219.172 256.348 218.178 257.261 217.129 258.107C216.808 258.348 214.075 259.795 214.155 259.554C214.477 256.5 218.094 253.527 219.782 251.116C221.471 248.705 223.239 246.375 224.686 243.884C225.973 241.634 222.435 240.429 220.988 239.786C217.933 238.42 215.682 237.696 217.531 233.839C219.175 230.369 221.14 227.06 223.4 223.955C225.329 221.384 228.063 217.045 231.439 216.08C230.939 217.683 230.148 219.181 229.108 220.5L228.626 221.062Z" fill="white"/>
<path d="M41.6334 183.937C38.8196 186.589 39.5432 192.134 44.2863 190.848C51.3608 188.839 46.4569 179.437 41.6334 183.937Z" fill="white"/>
<path d="M101.686 67.5C99.8373 69.2679 100.32 72.9643 103.455 72.0804C108.118 70.7947 104.822 64.5268 101.686 67.5Z" fill="white"/>
<path d="M273.484 111.054C274.548 107.263 275.891 103.556 277.504 99.9644C277.745 99.4019 278.308 98.759 278.79 99.0001C279.273 99.2411 279.273 99.9644 279.112 100.447C278.308 103.822 277.504 107.277 276.7 110.652C279.881 110.323 283.094 110.821 286.025 112.098C286.088 112.119 286.145 112.154 286.192 112.199C286.24 112.245 286.276 112.301 286.299 112.362C286.322 112.424 286.331 112.49 286.326 112.555C286.32 112.621 286.3 112.684 286.267 112.741C286.267 112.822 286.186 112.902 286.106 112.982C284.331 114.108 282.257 114.668 280.157 114.589C279.788 114.492 279.402 114.477 279.026 114.547C278.651 114.616 278.296 114.768 277.986 114.991C277.686 115.361 277.492 115.805 277.423 116.277C276.725 119.218 275.644 122.055 274.208 124.714C274.127 124.847 274.001 124.945 273.852 124.989C273.704 125.034 273.544 125.022 273.404 124.955C273.33 124.918 273.268 124.86 273.226 124.789C273.183 124.718 273.161 124.636 273.163 124.554C272.6 121.902 273.725 118.929 273.645 116.116C273.652 115.804 273.568 115.497 273.404 115.232C273.279 115.077 273.119 114.952 272.938 114.869C272.757 114.785 272.558 114.744 272.359 114.75C269.369 114.111 266.438 113.224 263.596 112.098C262.792 111.777 261.908 110.973 262.471 110.33C262.679 110.161 262.929 110.05 263.194 110.009C264.975 109.688 266.799 109.688 268.58 110.009L273.484 111.054Z" fill="white"/>
<path d="M300.175 77.4642C297.28 80.1964 298.004 85.9821 302.988 84.616C310.304 82.5267 305.159 72.8035 300.175 77.4642Z" fill="white"/>
<path d="M313.841 220.178C312.911 217.505 312.185 214.765 311.671 211.982C311.59 211.5 311.671 210.937 312.073 210.857C312.475 210.777 312.716 211.259 312.876 211.58C313.761 213.911 314.725 216.241 315.61 218.652C317.381 217.19 319.476 216.171 321.72 215.678C321.88 215.678 322.122 215.759 322.122 216V216.241C321.527 217.637 320.517 218.816 319.227 219.616C318.745 219.937 318.182 220.178 318.102 220.741C318.078 221.097 318.132 221.454 318.263 221.786C319.054 223.824 319.568 225.959 319.79 228.134C319.787 228.248 319.746 228.357 319.673 228.445C319.6 228.532 319.5 228.593 319.388 228.616C319.275 228.628 319.161 228.6 319.067 228.536C317.62 227.25 317.137 224.92 315.931 223.312C315.851 223.152 315.61 222.991 315.449 222.83C315.312 222.794 315.168 222.79 315.028 222.818C314.889 222.845 314.758 222.905 314.645 222.991C312.613 223.829 310.515 224.5 308.374 225C307.812 225.161 306.927 225 307.008 224.437C307.086 224.259 307.195 224.096 307.329 223.955C308.226 223.001 309.324 222.26 310.545 221.786L313.841 220.178Z" fill="white"/>
<path d="M466.667 244.527C464.818 246.295 465.3 249.991 468.435 249.107C473.098 247.821 469.882 241.553 466.667 244.527Z" fill="white"/>
<path d="M26.9215 211.42C26.2844 208.88 25.8012 206.303 25.4745 203.705C25.4745 203.303 25.5549 202.741 25.8764 202.741C26.198 202.741 26.4392 203.143 26.6 203.464C27.3235 205.714 27.9666 207.964 28.6098 210.134C30.368 208.93 32.373 208.134 34.4784 207.803C34.5613 207.802 34.6429 207.824 34.714 207.866C34.7851 207.909 34.8427 207.971 34.8804 208.045C34.8856 208.088 34.8811 208.132 34.8672 208.174C34.8533 208.216 34.8304 208.254 34.8 208.286C34.1836 209.545 33.1653 210.562 31.9059 211.178C31.6631 211.255 31.4384 211.381 31.245 211.546C31.0516 211.712 30.8936 211.915 30.7804 212.143C30.7268 212.466 30.7545 212.797 30.8608 213.107C31.4225 215.043 31.7465 217.04 31.8255 219.053C31.829 219.107 31.8211 219.161 31.8021 219.211C31.7832 219.262 31.7537 219.307 31.7156 219.345C31.6776 219.384 31.6318 219.413 31.5814 219.432C31.5311 219.451 31.4772 219.459 31.4235 219.455C31.3431 219.455 31.1823 219.375 31.1823 219.295C29.9764 218.009 29.6549 215.839 28.6902 214.232C28.5807 214.052 28.4453 213.89 28.2882 213.75C28.1566 213.703 28.0162 213.686 27.8773 213.7C27.7383 213.714 27.6041 213.759 27.4843 213.83C25.5437 214.472 23.5542 214.956 21.5353 215.277C20.9725 215.357 20.1686 215.116 20.3294 214.634C20.3896 214.468 20.5026 214.327 20.651 214.232C21.5595 213.428 22.628 212.826 23.7863 212.464L26.9215 211.42Z" fill="white"/>
</g>
<defs>
<filter id="filter0_d_1_1118" x="-2" y="0" width="500" height="431" filterUnits="userSpaceOnUse" color-interpolation-filters="sRGB">
<feFlood flood-opacity="0" result="BackgroundImageFix"/>
<feColorMatrix in="SourceAlpha" type="matrix" values="0 0 0 0 0 0 0 0 0 0 0 0 0 0 0 0 0 0 127 0" result="hardAlpha"/>
<feOffset dy="4"/>
<feGaussianBlur stdDeviation="2"/>
<feComposite in2="hardAlpha" operator="out"/>
<feColorMatrix type="matrix" values="0 0 0 0 0 0 0 0 0 0 0 0 0 0 0 0 0 0 0.25 0"/>
<feBlend mode="normal" in2="BackgroundImageFix" result="effect1_dropShadow_1_1118"/>
<feBlend mode="normal" in="SourceGraphic" in2="effect1_dropShadow_1_1118" result="shape"/>
</filter>
<clipPath id="clip0_1_1118">
<rect width="492" height="423" fill="white" transform="translate(2)"/>
</clipPath>
</defs>
</svg>
